<svg xmlns="http://www.w3.org/2000/svg" version="1.1" viewBox="-17.5 -10.0 135.0 135.0" width="135" height="135">
    <path
        d="m56 8.2305c1.8867-2.3203 4.8164-3.5352 7.7891-3.2305 3.3203 0.17969 6.6797 1.7109 7.8203 3.5781 2 3.2812-2.3711 6.1797-2.4219 6.2109h0.003906c-0.078125 0.03125-0.16406 0.03125-0.24219 0-0.082031-0.023437-0.15234-0.082031-0.1875-0.16016-0.33203-0.55859-0.6875-1.1016-1.0703-1.6289-0.20703-0.28906-0.26562-0.66016-0.16016-1 0.21484-0.51562 0.58984-0.94531 1.0703-1.2305-2.2773-0.125-4.5547-0.125-6.832 0-0.37109 0.10156-1 2.1719-1.2812 4.4297-0.015625 0.10156-0.082031 0.19141-0.17969 0.23047-0.085938 0.054687-0.19922 0.054687-0.28906 0-0.58984-0.39063-1.293-0.57422-2-0.51953-0.50391 0.10547-0.94141 0.41797-1.2109 0.85938-0.23828 0.27344-0.3125 0.65625-0.1875 1 0.32031 0.78125 1.8516 1.2383 2.4219 1.3516h-0.003907c0.125 0.023437 0.22266 0.125 0.24219 0.25 0.32812 2.1406-2.2695 3.9102-2.3906 4-0.046875 0.03125-0.10547 0.046875-0.16016 0.050781-0.078125-0.003906-0.15234-0.03125-0.21094-0.082031-4.8477-4.6484-4.9805-8.3398-0.51953-14.109zm14.422 9.5117c0.58984-1.1094-0.42969-2.1719-1-2.5781v-0.003906c-0.14453-0.085937-0.32812-0.046875-0.42188 0.089844-0.042969 0.066406-0.058594 0.14844-0.042969 0.22266 0.015625 0.078125 0.066407 0.14453 0.13281 0.1875 0 0 1.3281 0.89062 0.85156 1.7891-0.23828 0.55078-0.74609 0.92969-1.3398 1-0.097656 0-0.18359 0.046875-0.24219 0.12109-0.039063 0.085938-0.039063 0.18359 0 0.26953 0 0.17969 1.3203 4.4297-2.0781 6.8984-2.8281 2.0508-3.7617 3.5195-4 4.1094v0.003906c-2.6641-0.93359-4.8945-2.8047-6.2812-5.2617-0.089844-0.11328-0.25-0.14453-0.37891-0.078125-0.125 0.070312-0.1875 0.21875-0.14062 0.35938 1.4414 2.6758 3.8516 4.6953 6.7383 5.6484h0.070312c0.13672 0.003907 0.25781-0.085937 0.28906-0.21875 0 0 0.5-1.5703 4-4.0703 3.1719-2.3086 2.6211-6.1016 2.3711-7.2383v-0.003907c0.64453-0.19141 1.1797-0.64453 1.4727-1.25zm-30 42.52h0.070313c0.14844 0 15.629-3.6719 27.699-13 3.8398-3 5.8711-6.3008 6-9.8398 0.23047-5.4297-4-9.3906-4.1797-9.5586v-0.003906c-0.12109-0.11328-0.3125-0.11328-0.43359 0-0.11328 0.11719-0.11328 0.30469 0 0.42188 0 0 4.2109 3.9414 4 9.1016-0.14062 3.3516-2.0898 6.5117-5.7891 9.3789-11.461 8.8789-26 12.57-27.371 12.898-2.4883-1.1719-6.418-3.4219-6.418-4.6602 0-0.14062 0-0.35156 0.37891-0.57031 1.2148-0.87109 2.6094-1.4609 4.082-1.7305 0.10937-0.003907 0.21094-0.070313 0.25781-0.16797 0.0625-0.09375 0.0625-0.21094 0-0.30078-0.5-0.71094-1.1992-2-0.92188-2.5898 0.10156-0.19141 0.35156-0.28125 0.75-0.28125h0.003906c1.5664 0.14844 3.0078 0.91797 4 2.1406 0.09375 0.11328 0.25391 0.14062 0.37891 0.070312 0.75-0.41016 18.43-10.18 23-19.238v-0.003906c0.050781-0.14062-0.011719-0.29688-0.14453-0.36719-0.13672-0.066407-0.30078-0.023438-0.38672 0.097656-2.7695 5.4883-10.73 11.41-16.461 15.148-2.3711-0.26953-5.4609-4.6484-5.4883-4.6992v0.003907c-0.10547-0.10938-0.27344-0.12109-0.39453-0.035157-0.125 0.085938-0.16797 0.24609-0.10547 0.38281 0.12891 0.17188 2.8086 4 5.3008 4.8008-2.6719 1.7109-4.7383 2.8984-5.3906 3.2695-1.082-1.2734-2.6328-2.0547-4.3008-2.168-0.50781-0.070313-1.0117 0.16797-1.2773 0.60938-0.42188 0.80078 0.28125 2.1406 0.69922 2.8086-1.418 0.33984-2.7617 0.92187-3.9805 1.7188-0.40625 0.21484-0.65625 0.64453-0.64062 1.1016 0.12891 2 6.2109 4.8984 6.8984 5.2109h0.003907c0.039062 0.023437 0.082031 0.042968 0.12891 0.050781zm-0.73047-32.91c0.10547 0 0.20312-0.058593 0.25781-0.15234 2.7383-4.5898 10.93-8.1211 11-8.1602 0.15234-0.0625 0.22266-0.23828 0.16016-0.39062-0.066406-0.14453-0.23828-0.21484-0.39062-0.16016-0.35156 0.14844-8.4609 3.6484-11.301 8.4102h0.003906c-0.078125 0.14453-0.03125 0.32422 0.10938 0.41016 0.039062 0.023437 0.082031 0.039062 0.12891 0.042968zm14.309-4.1133c-0.12109-0.10938-0.30859-0.10938-0.42969 0-0.070312 0.058594-7.5312 6.2812-10.262 13.16-0.03125 0.074218-0.03125 0.16016 0 0.23437 0.035156 0.074219 0.09375 0.12891 0.17188 0.15625 0.035156 0.011719 0.074219 0.011719 0.10938 0 0.125 0 0.23438-0.074218 0.28125-0.1875 2.6719-6.7383 10-12.852 10.078-12.922 0.070312-0.050782 0.11328-0.125 0.12109-0.20703 0.011719-0.085937-0.015624-0.16797-0.070312-0.23438zm32.27 69.391c-0.5 1.1016-3.1211 1.3789-6.4297 1.7305-1.5117 0.16016-3.0703 0.32031-4.5781 0.57812v0.003906c-0.23438 0.039063-0.47266 0.058594-0.71094 0.058594-1.8516-0.15625-3.6133-0.85156-5.0703-2-0.25-0.17188-0.51172-0.37109-0.76172-0.55859-3.4219-2.5391-7.1484-6.5508-10.199-9.8281-1.3594-1.4805-2.6602-2.8711-3.75-4-5.1914-5.1211-18.281-15.922-18.41-16v-0.003906c-0.058594-0.054687-0.089844-0.12891-0.089844-0.21094 0-0.078126 0.03125-0.15234 0.089844-0.20703 0.11719-0.11719 0.30469-0.11719 0.42188 0 0.078125 0.058594 4.8594 4 9.7812 8.25 4.1484-0.23828 13.789-14.059 13.879-14.199v-0.003907c0.042969-0.0625 0.11328-0.10938 0.19531-0.12109 0.078125-0.011719 0.16016 0.007812 0.22266 0.054687 0.066406 0.039063 0.11328 0.10938 0.12891 0.1875 0.015625 0.074219-0.003906 0.15625-0.046875 0.21875-0.39062 0.55859-9.1602 13.129-13.789 14.359 3.0703 2.6602 6.1289 5.3906 8.0781 7.3086 1.1016 1.0898 2.3984 2.4883 3.7695 4v0.003906c3.043 3.4688 6.3594 6.6875 9.9219 9.6211 0.71094-0.76953 3.2109-3.25 6.2305-3.25h-0.003906c-0.30078-0.33594-0.47266-0.76953-0.47656-1.2227 0-1 0.92188-2.0586 2.7305-3.0703-4-7.3984-12.77-22.871-16.211-25.25-0.066406-0.042969-0.11328-0.11328-0.12891-0.19141s0-0.16016 0.046875-0.22656 0.11719-0.10938 0.19531-0.12109c0.078124-0.015624 0.16016 0.003907 0.22656 0.050782 1.8594 1.2812 5.1016 6.0586 8.3516 11.398 3.4297-3.6094 4.8789-7 4.3008-10-0.82812-4.25-5.5195-6.3516-5.5586-6.3789h-0.003906c-0.074219-0.027344-0.13672-0.085937-0.16406-0.16016-0.03125-0.074219-0.03125-0.15625 0.003907-0.23047 0.03125-0.070312 0.09375-0.12891 0.16797-0.15625 0.074219-0.03125 0.16016-0.027344 0.23047 0.007812 0.19922 0.089844 5 2.25 5.9102 6.8086 0.62891 3.2305-0.91016 6.8008-4.5586 10.609 4.5898 7.5898 9.1289 16.102 9.7891 17.34 0.76953 0.19922 4.5195 1.2695 6.1211 3.5703 0.25781 0.35937 0.31641 0.82422 0.14844 1.2305zm-0.71875-0.94922c-1.6211-2.3398-5.8594-3.3594-5.8984-3.3711h-0.003906c-0.085938-0.015625-0.16016-0.070313-0.19922-0.14844 0 0-0.73047-1.3711-1.8398-3.4102-2 1.1211-2.4219 2-2.4219 2.5508 0 0.82031 1 1.3398 1 1.3516l0.003906-0.003906c0.13672 0.0625 0.20312 0.22266 0.14844 0.36328-0.046875 0.14062-0.19531 0.22266-0.33984 0.1875-3.0703-0.57812-5.8594 2.1016-6.6406 2.9297l0.5 0.35938c2.1602 1.4688 4 2.1016 5.3398 1.8594 1.3398-0.23828 3.1016-0.42969 4.6211-0.58984 2.75-0.28906 5.5781-0.58984 6-1.3789-0.058593-0.070312 0.03125-0.26953-0.26953-0.69922zm-54.621-43.121h-0.76953c-5.0312-0.21484-8.9648-4.4141-8.8594-9.4492 0.10938-5.0352 4.2227-9.0625 9.2578-9.0625 5.0391 0 9.1523 4.0273 9.2578 9.0625 0.10938 5.0352-3.8242 9.2344-8.8555 9.4492zm0-0.60156v0.003907c1.3945-0.007813 2.7656-0.35156 4-1-0.45313-2.2031-0.32813-4.4844 0.35937-6.6211-1.4219-0.85938-2.9453-1.5312-4.5391-2-0.94922 3.1914-1.4805 6.8008-0.39062 9.5781v0.003906c0.1875 0.035156 0.37891 0.0625 0.57031 0.078125zm7.832-4.957c-0.91406-0.87109-1.9023-1.6562-2.9531-2.3516-0.60156 1.9414-0.72266 4.0039-0.34766 6 1.4258-0.875 2.5703-2.1406 3.3008-3.6484zm0.89062-3.8008h-0.003906c-0.003907-1.2305-0.26953-2.4492-0.77734-3.5703-1.2656 1.2695-2.2461 2.793-2.8711 4.4727 1.0703 0.69141 2.0742 1.4805 3 2.3594 0.42188-1.0234 0.64062-2.1172 0.64844-3.2227zm-5.8516-8.1992c-1.1602 2.1602-2.125 4.418-2.8789 6.75 1.6016 0.46875 3.1367 1.1406 4.5664 2 0.68359-1.7695 1.7422-3.3711 3.1016-4.6914-1.043-1.8945-2.7461-3.3438-4.7891-4.0586zm-2.8711-0.48828c-1.5742 0-3.1211 0.42969-4.4688 1.2383 0.28516 1.7383 0.30078 3.5078 0.050781 5.25 1.2852 0.078125 2.5625 0.28516 3.8086 0.60938 0.76172-2.3359 1.7266-4.6016 2.8906-6.7695-0.74219-0.20312-1.5117-0.30859-2.2812-0.30859zm-8.4609 6.6484c1.1328-0.15625 2.2773-0.21094 3.4219-0.16016 0.22656-1.6055 0.22656-3.2344 0-4.8398-1.707 1.207-2.9219 2.9922-3.4219 5.0195zm-0.26172 2.0586h0.003907c-0.007813 1.3086 0.28906 2.6016 0.85937 3.7812 1.418-1.5 2.3594-3.3867 2.7109-5.4219-1.1523-0.035156-2.3047 0.046875-3.4414 0.25-0.082032 0.46875-0.125 0.9375-0.12891 1.4102zm7.4805 8.6211c-1-2.8984-0.48828-6.5117 0.46094-9.6797-1.2227-0.31641-2.4766-0.50781-3.7383-0.58203-0.37891 2.2539-1.4453 4.332-3.0508 5.9531 1.3281 2.3398 3.6641 3.9375 6.332 4.3281zm-8-16.371h0.003906c0.14844-0.070312 0.21094-0.25 0.13672-0.39844-0.066406-0.14844-0.23828-0.21484-0.38672-0.14844-5 2.3086-4.7695 9.6094-4.75 9.9219v-0.003906c0 0.078125 0.035156 0.14844 0.089844 0.20312 0.058594 0.050781 0.13281 0.078125 0.20703 0.078125 0.082031-0.003906 0.15625-0.039063 0.21094-0.097656 0.054687-0.054688 0.082031-0.13281 0.082031-0.21484-0.050781-0.046875-0.28125-7.1797 4.3594-9.3203zm-4.9297 0.71875 0.003907 0.003906c0.074219-0.03125 0.13281-0.089844 0.16406-0.16016 0.027344-0.074219 0.027344-0.16016-0.003906-0.23047-0.03125-0.074219-0.089844-0.13281-0.16406-0.16406-0.070312-0.03125-0.15625-0.03125-0.22656 0.003906-3.3516 1.3984-2.8203 5.1289-2.8086 5.1719l-0.003906-0.003906c0.023438 0.14844 0.15234 0.25781 0.30078 0.25 0.078125-0.007813 0.15234-0.050782 0.19922-0.11328 0.046875-0.066406 0.066406-0.14844 0.050781-0.22656-0.28516-1.8789 0.71094-3.7188 2.4414-4.5078zm13.332-6.1875h0.058594c0.14453-0.003906 0.26562-0.10938 0.29297-0.25 0.80078-4 6.1719-3.8789 6.2188-3.8789 0.16406 0 0.30078-0.12891 0.30859-0.29297 0.003906-0.078125-0.023438-0.15625-0.078125-0.21484-0.054687-0.054687-0.13281-0.089843-0.21094-0.09375-0.058594 0-5.9297-0.17188-6.8281 4.3711-0.019531 0.078125-0.003906 0.16406 0.042969 0.23047 0.042969 0.066406 0.11328 0.11328 0.19531 0.12891zm3.7695-1.8203c-0.92969 0.48047-1.543 1.4062-1.6211 2.4492 0 0.16797 0.13672 0.30078 0.30078 0.30078 0.16406-0.003907 0.29688-0.13672 0.30078-0.30078 0.070312-0.82422 0.56641-1.5508 1.3086-1.918 0.14844-0.082032 0.20312-0.26563 0.12109-0.41016-0.078125-0.14844-0.26172-0.19922-0.41016-0.12109zm1.5703 3c0.042968 0.12109 0.15234 0.19922 0.28125 0.19922h0.10156-0.003906c0.078125-0.023437 0.14062-0.078125 0.17578-0.14844 0.035156-0.074219 0.039063-0.15625 0.015625-0.23047 0-0.050781-0.30078-1 1.5117-1.8516 0.14844-0.066407 0.21875-0.24609 0.14844-0.39844-0.070312-0.15234-0.25-0.21875-0.39844-0.14844-2.3398 1.0195-1.8516 2.4883-1.832 2.5469zm16.68 3.2891c-0.99219 1.2812-1.5508 2.8438-1.5977 4.4609 0 0.16406 0.13281 0.30078 0.29688 0.30078 0.078125 0.003906 0.15625-0.027344 0.21484-0.082031 0.054687-0.054688 0.085937-0.12891 0.085937-0.20703 0.054687-1.4805 0.5625-2.9062 1.4609-4.082 0.10547-0.125 0.089844-0.31641-0.035156-0.42578-0.12891-0.10547-0.31641-0.089844-0.42578 0.035156zm11.52-15v-0.89062c0-0.16406-0.13281-0.29688-0.30078-0.29688-0.16406 0-0.29688 0.13281-0.29688 0.29688v0.89062c0 0.16797 0.13281 0.30078 0.29688 0.30078 0.16797 0 0.30078-0.13281 0.30078-0.30078zm2.7305 0.14062v-0.89062c0.003906-0.078125-0.027344-0.15625-0.085937-0.21484-0.054688-0.054687-0.13281-0.085937-0.21484-0.082031-0.16406 0-0.29688 0.13281-0.29688 0.29688v0.89062c0.003906 0.16406 0.13672 0.29688 0.29688 0.30078 0.09375 0 0.17969-0.039062 0.23828-0.10938 0.058594-0.070312 0.082031-0.16016 0.0625-0.25zm-2.5312 5c-0.37891-0.058594-0.67969-0.48828-0.89062-1.2695h0.003906c-0.023437-0.078125-0.074218-0.14062-0.14453-0.18359-0.066406-0.039062-0.14844-0.046875-0.22656-0.027344-0.078124 0.019532-0.14062 0.070313-0.17969 0.13672-0.042969 0.066406-0.050781 0.14844-0.03125 0.22266 0.26953 1 0.73828 1.6094 1.3789 1.7109h0.19922c1.4883 0 3.1719-2.5 3.3594-2.8008h0.003906c0.078125-0.10156 0.078125-0.24609 0-0.34766-0.082031-0.10547-0.21875-0.14062-0.33984-0.089843-1.7812 0.71094-2.7695 0.57031-3.2891 0.32812-0.32422-0.12891-0.58203-0.375-0.72266-0.6875-0.046875-0.15625-0.21094-0.24609-0.37109-0.20312-0.074219 0.023437-0.14062 0.078124-0.17969 0.14844-0.035157 0.074219-0.042969 0.15625-0.019532 0.23438 0.18359 0.46484 0.54297 0.84375 1 1.0469 0.92969 0.35156 1.9531 0.35156 2.8828 0-0.75 0.86328-1.75 1.8125-2.4336 1.7031zm-10.43 59-7.1016 2.5898h0.003906c-0.14844 0.058593-0.23047 0.21875-0.19141 0.37109 0 0 1.25 4.5-1 5.1602-0.64062 0.19141-1.7109-0.35938-2.9492-1.5117-2.4219-2.25-5-6.5-4.6602-8.2383 0.30469-0.90625 0.89062-1.6953 1.6719-2.25 1.1602 1.1914 3.5703 4 3.4688 5.5391-0.003906 0.14062 0.085937 0.26562 0.21875 0.30859h0.14062c0.11328 0.003906 0.21875-0.058594 0.26953-0.15625 0.29297-0.55469 0.78906-0.96875 1.3789-1.1602 0.58984-0.0625 1.1719 0.16016 1.5703 0.59766 0.125 0.10938 0.31641 0.10156 0.42578-0.023437s0.10156-0.31641-0.023437-0.42578c-0.42969-0.50391-1.0625-0.78906-1.7227-0.77344-0.66016 0.011719-1.2812 0.32031-1.6875 0.84375-0.5-1.8984-2.7617-4.3594-3.5117-5.1289 1.4336-1.0156 2.9688-1.8789 4.582-2.5703 0.074219-0.03125 0.13281-0.089844 0.16406-0.16016 0.027344-0.074219 0.027344-0.16016-0.003906-0.23047-0.066406-0.15234-0.23828-0.22266-0.39062-0.16016-1.7891 0.71484-3.4844 1.6445-5.0508 2.7695-0.94531 0.66406-1.6484 1.6211-2 2.7188-0.44922 2 2.2305 6.3906 4.8398 8.8086v0.003906c0.80859 0.89453 1.8906 1.4961 3.082 1.707 0.14844 0 0.29688-0.023437 0.4375-0.066406 2.4414-0.71875 1.6992-4.5586 1.4414-5.6289l6.8008-2.543c0.074219-0.023438 0.13672-0.078125 0.17188-0.15234 0.03125-0.070312 0.035156-0.15234 0.007812-0.22656-0.070312-0.14453-0.23828-0.20703-0.38281-0.14062zm-8.4766-15.68c-0.11719 0.11719-0.11719 0.30469 0 0.42187l2 2.1016v-0.003906c0.054687 0.058593 0.13672 0.089843 0.21875 0.089843 0.078125 0.003907 0.15234-0.023437 0.21094-0.078124 0.11328-0.11719 0.11328-0.30469 0-0.42188l-2-2.1016v0.003906c-0.058593-0.0625-0.13281-0.09375-0.21484-0.097656-0.082031 0-0.16016 0.03125-0.21484 0.085938z"
    />
</svg>